#!OML:ASF H:\Terrain\Patient Classification 1\Terrain2\Thursday\justin.ASF
:FULLY-SPECIFIED
:DEGREES
3726
root 25.286 20.3012 10.9326 104.522 98.6313 113.31
lowerback 5.17654 1.55783 5.73132
upperback 3.55949 2.4718 4.22018
thorax 0.82485 1.36432 1.03563
lowerneck -11.7417 -0.982107 -8.15097
upperneck 41.1288 2.90565 1.22665
head 16.8233 0.855518 2.7435
rclavicle -2.93425e-014 6.36111e-015
rhumerus -31.9716 1.45045 -81.7139
rradius 52.2422
rwrist -18.1266
rhand -23.1806 12.4078
rfingers 7.12502
rthumb 3.26865 -17.5469
lclavicle -2.93425e-014 6.36111e-015
lhumerus -43.2368 6.94516 82.2352
lradius 26.7704
lwrist -1.56415
lhand -13.97 19.6684
lfingers 7.12502
lthumb 12.158 49.2951
rfemur -6.2421 -7.55884 24.4503
rtibia 86.6642
rfoot -34.5383 15.8987
rtoes -9.17637
lfemur -6.56238 -0.0442566 -12.046
ltibia 12.3878
lfoot 31.361 4.88251
ltoes -0.369339
3727
root 25.4167 20.1009 10.9183 105.06 98.6153 114.074
lowerback 5.10683 1.60207 5.58981
upperback 3.58138 2.51812 4.26556
thorax 0.878852 1.38617 1.16206
lowerneck -11.89 -0.947187 -8.15803
upperneck 41.1183 2.98059 1.19748
head 16.8512 0.878415 2.74642
rclavicle -1.04082e-014 -1.70955e-014
rhumerus -32.2225 1.05163 -81.4527
rradius 52.5278
rwrist -18.1351
rhand -22.9609 12.514
rfingers 7.12502
rthumb 3.48085 -17.4373
lclavicle -1.04082e-014 -1.70955e-014
lhumerus -43.5243 7.5566 81.9572
lradius 26.9883
lwrist -2.1569
lhand -14.1826 19.7986
lfingers 7.12502
lthumb 11.9531 49.4373
rfemur -6.28531 -7.59853 23.911
rtibia 88.7919
rfoot -34.2256 16.7705
rtoes -8.32682
lfemur -5.76119 0.255414 -12.2729
ltibia 12.5802
lfoot 31.6155 4.29236
ltoes -0.821265
3728
root 25.5425 19.8997 10.8834 106.315 98.2779 115.295
lowerback 4.85672 1.63612 5.3014
upperback 3.52831 2.52737 4.21824
thorax 0.952281 1.38394 1.28008
lowerneck -11.9771 -0.917668 -8.26688
upperneck 41.0129 3.03345 1.21794
head 16.8101 0.884874 2.78027
rclavicle 3.69615e-016 -2.42517e-014
rhumerus -32.4451 0.840649 -81.1151
rradius 52.8373
rwrist -18.1403
rhand -23.0268 12.42
rfingers 7.12502
rthumb 3.41725 -17.5323
lclavicle 3.69615e-016 -2.42517e-014
lhumerus -43.6994 8.31562 81.7672
lradius 27.0735
lwrist -2.57197
lhand -14.461 19.8053
lfingers 7.12502
lthumb 11.6846 49.4595
rfemur -6.65537 -7.74318 22.7539
rtibia 90.9972
rfoot -34.0609 17.8054
rtoes -9.08934
lfemur -5.31422 0.902334 -12.9834
ltibia 12.8805
lfoot 32.0506 2.59666
ltoes -2.88327
3729
root 25.6686 19.6936 10.8568 106.842 98.1445 115.742
lowerback 4.59757 1.7043 5.24768
upperback 3.42373 2.59338 4.13896
thorax 0.990922 1.41291 1.23246
lowerneck -12.1102 -0.982427 -8.23552
upperneck 40.9824 2.91597 1.23126
head 16.8339 0.83932 2.76211
rclavicle -2.75317e-014 -9.93923e-015
rhumerus -32.7399 0.537158 -80.9189
rradius 53.1116
rwrist -18.3784
rhand -23.196 12.0351
rfingers 7.12502
rthumb 3.25381 -17.9198
lclavicle -2.75317e-014 -9.93923e-015
lhumerus -43.5606 8.19064 81.8187
lradius 26.9481
lwrist -2.07951
lhand -14.6389 19.9314
lfingers 7.12502
lthumb 11.5131 49.5952
rfemur -7.06643 -7.90319 21.8597
rtibia 93.186
rfoot -33.5038 19.4499
rtoes -7.74028
lfemur -4.98247 1.40727 -13.3656
ltibia 13.3998
lfoot 31.9567 1.96997
ltoes -0.87767
3730
root 25.798 19.4807 10.8403 107.706 97.7767 116.753
lowerback 4.54165 1.75164 4.82944
upperback 3.37429 2.63143 3.98673
thorax 0.958658 1.42131 1.3064
lowerneck -12.397 -1.03504 -8.2205
upperneck 41.0948 2.80604 1.36203
head 16.9715 0.804536 2.81008
rclavicle 3.76138e-015 -2.46493e-014
rhumerus -33.041 0.271492 -80.8786
rradius 53.3718
rwrist -18.7981
rhand -23.586 11.6687
rfingers 7.12502
rthumb 2.87718 -18.2916
lclavicle 3.76138e-015 -2.46493e-014
lhumerus -43.2768 7.81511 81.8
lradius 26.8036
lwrist -1.22224
lhand -14.2341 20.2588
lfingers 7.12502
lthumb 11.9033 49.9004
rfemur -7.255 -7.9937 20.6106
rtibia 95.4183
rfoot -32.432 21.7869
rtoes -4.74119
lfemur -4.64252 1.52171 -14.0074
ltibia 14.5873
lfoot 30.2765 1.76221
ltoes 3.28251
3731
root 25.9276 19.2585 10.8246 107.577 97.6727 116.862
lowerback 4.57037 1.79779 4.62252
upperback 3.3801 2.68758 4.00804
thorax 0.938225 1.44547 1.44016
lowerneck -12.7064 -1.07363 -8.32226
upperneck 41.1282 2.71007 1.56988
head 17.0675 0.768877 2.91303
rclavicle -5.3765e-015 -1.31198e-014
rhumerus -33.3227 -0.00368333 -80.6032
rradius 53.5918
rwrist -19.0897
rhand -23.4829 11.5735
rfingers 7.12502
rthumb 2.97676 -18.3855
lclavicle -5.3765e-015 -1.31198e-014
lhumerus -43.2737 7.83092 81.7849
lradius 26.9335
lwrist -0.956407
lhand -13.9874 20.3628
lfingers 7.12502
lthumb 12.1412 49.9905
rfemur -7.31904 -7.93252 19.7254
rtibia 97.6142
rfoot -31.4489 23.9242
rtoes -2.8377
lfemur -4.39915 1.96998 -14.3251
ltibia 16.4864
lfoot 26.4525 -0.306265
ltoes 6.12333
